<?xml version="1.0" encoding="UTF-8" standalone="no"?>
<!-- Created with Inkscape (http://www.inkscape.org/) -->

<svg
   version="1.1"
   id="svg1"
   width="711"
   height="717"
   viewBox="0 0 711.00001 716.99997"
   sodipodi:docname="Knot_II-NOVO.svg"
   inkscape:version="1.4.3 (0d15f75042, 2025-12-25)"
   xmlns:inkscape="http://www.inkscape.org/namespaces/inkscape"
   xmlns:sodipodi="http://sodipodi.sourceforge.net/DTD/sodipodi-0.dtd"
   xmlns="http://www.w3.org/2000/svg"
   xmlns:svg="http://www.w3.org/2000/svg">
  <defs
     id="defs1" />
  <sodipodi:namedview
     id="namedview1"
     pagecolor="#ffffff"
     bordercolor="#000000"
     borderopacity="0.25"
     inkscape:showpageshadow="2"
     inkscape:pageopacity="0.0"
     inkscape:pagecheckerboard="0"
     inkscape:deskcolor="#d1d1d1"
     showgrid="false"
     inkscape:zoom="0.44"
     inkscape:cx="629.54545"
     inkscape:cy="359.09091"
     inkscape:window-width="1920"
     inkscape:window-height="1011"
     inkscape:window-x="0"
     inkscape:window-y="0"
     inkscape:window-maximized="1"
     inkscape:current-layer="g1"
     showguides="true" />
  <g
     inkscape:groupmode="layer"
     inkscape:label="Layer 1"
     id="g1"
     transform="translate(-10.33506,11.85013)"
     style="display:inline">
    <path
       id="path1"
       style="baseline-shift:baseline;display:inline;overflow:visible;vector-effect:none;fill:#000000;stroke-linecap:round;stroke-linejoin:round;paint-order:markers fill stroke;enable-background:accumulate;stop-color:#000000"
       d="M 365.83897,6.5424481 C 365.69914,6.6822856 325.06701,47.359716 309.22959,112.53073 221.95183,133.64231 152.90674,202.47581 131.73154,289.9819 81.148251,302.21326 45.364025,328.64902 25.723732,346.65182 c 37.314951,34.21538 77.243918,49.64756 105.992188,56.60938 21.1138,87.27467 89.9479,156.31667 177.45117,177.49219 12.22052,50.53715 38.61633,86.29333 56.58594,105.91796 0.0277,0.0306 0.0563,0.0612 0.084,0.0918 34.32995,-37.4382 49.71408,-77.55022 56.60742,-105.99414 87.28245,-21.11509 156.33006,-89.95674 177.5,-177.4707 45.50329,-11.25084 82.73311,-34.52601 105.93555,-56.58789 0.0222,-0.0211 0.0461,-0.0396 0.0684,-0.0605 C 685.42718,327.83317 649.93959,302.12763 599.95615,290.0444 589.94172,248.64657 569.18975,211.34908 540.80186,181.31784 509.35063,148.04589 468.52834,123.69186 422.546,112.55612 413.03911,73.155784 393.56696,36.885942 365.83897,6.5424481 Z m -0.004,12.0195309 c 21.4929,25.3065 56.07183,77.794329 55.31836,152.914061 -0.076,7.57362 -0.51172,15.05866 -1.29492,22.44141 -6.82713,-2.42467 -13.86597,-4.40247 -21.07813,-5.90039 0.4882,-5.52522 0.76373,-11.11414 0.82031,-16.75586 0.53506,-53.34404 -18.72005,-93.614821 -33.76562,-116.863283 -0.003,0.0048 -0.009,0.0097 -0.0117,0.01367 -0.005,0.0078 -0.009,0.0174 -0.0137,0.02539 -10.71764,16.362614 -19.16395,33.87954 -24.57813,52.621091 -7.8765,0.8029 -15.64296,1.98746 -23.28125,3.53516 10.80722,-41.651224 31.20158,-72.393149 47.88477,-92.031251 z m 0,51.242188 c 6.45131,11.529383 11.81124,23.752519 15.94141,36.531253 -4.47651,-0.29422 -8.9872,-0.46423 -13.52735,-0.50977 -6.17027,-0.0619 -12.28803,0.11038 -18.34765,0.50781 4.13074,-12.784916 9.48743,-25.007228 15.93359,-36.529293 z m 2.33398,44.019533 c 5.40163,0.0542 10.75961,0.29254 16.06641,0.70898 1.9972,7.21007 3.60798,14.58108 4.80859,22.08985 -6.93257,-0.75571 -13.96773,-1.17662 -21.08984,-1.24805 -95.92517,-0.96216 -177.42664,61.94219 -204.14844,149.1582 -8.08278,0.80953 -15.86866,2.00252 -23.35156,3.51367 C 166.70202,187.00707 259.13799,112.73008 368.16904,113.8237 Z m 56.3086,7.45703 c 37.88273,9.84787 72.00114,29.00111 99.79492,54.84375 46.32298,43.07104 75.07406,104.72538 74.39062,172.86133 -0.0541,5.3959 -0.2933,10.74741 -0.70898,16.04883 -7.59542,2.09547 -14.98675,3.65375 -22.08789,4.78515 0.7527,-6.91999 1.17284,-13.94245 1.24414,-21.05078 0.60787,-60.60302 -24.27498,-115.44868 -64.67578,-154.36133 -23.53958,-22.67251 -52.347,-39.93411 -84.44922,-49.77539 -0.78686,-7.87914 -1.95868,-15.66982 -3.50781,-23.35156 z m -56.60352,22.0918 c 7.54485,0.0757 14.98617,0.56033 22.30664,1.42968 1.02434,8.63829 1.50957,17.44126 1.41992,26.37696 -0.052,5.18349 -0.29685,10.31776 -0.72656,15.39843 -7.64179,-1.19262 -15.45893,-1.84793 -23.41406,-1.92773 -9.07376,-0.091 -17.98393,0.57212 -26.67188,1.92969 -0.54084,-6.41233 -0.78658,-12.90854 -0.7207,-19.47657 0.0757,-7.54514 0.55848,-14.98943 1.42774,-22.31054 8.63839,-1.02444 17.44302,-1.50955 26.3789,-1.41992 z m -34.55664,2.55859 c -0.75585,6.93315 -1.17661,13.96937 -1.24805,21.0918 -0.40034,39.9123 10.25363,77.32882 29.11719,109.33984 -4.10926,6.62413 -8.5879,12.98891 -13.4082,19.07227 -23.98591,-37.03521 -37.73288,-81.26548 -37.25781,-128.62891 0.0542,-5.40166 0.29084,-10.75945 0.70703,-16.06641 7.21006,-1.99732 14.58104,-3.60791 22.08984,-4.80859 z m -30.28711,7.26758 c -0.29387,4.47605 -0.46619,8.98558 -0.51172,13.52539 -0.1024,10.20853 0.43614,20.27753 1.57618,30.16797 -39.69486,16.44832 -71.55569,48.25649 -88.0254,88.01953 -8.32093,-0.95873 -16.7724,-1.49034 -25.33007,-1.57617 -6.26726,-0.0629 -12.38177,0.10906 -18.34375,0.49218 20.01691,-61.93747 68.84132,-110.65527 130.63476,-130.6289 z m 125.65625,0.0195 c 30.96208,10.01129 58.62026,27.22159 81.03321,49.65234 22.41294,22.43076 39.5815,50.08224 49.5664,80.97461 -4.47642,-0.29413 -8.98544,-0.46422 -13.52539,-0.50976 -10.20719,-0.10238 -20.27476,0.4343 -30.16406,1.57422 -8.01684,-19.34629 -19.68349,-36.83222 -34.14063,-51.58204 -15.20525,-15.51311 -33.49824,-28.00063 -53.88086,-36.44336 0.95875,-8.32087 1.49228,-16.77056 1.57813,-25.32812 0.077,-6.15391 -0.0809,-12.27011 -0.4668,-18.33789 z m -61.30664,39.43164 c 39.27857,0.39398 75.02141,15.53546 102.01172,40.10156 16.19418,14.73966 29.23906,32.873 38.00391,53.24805 -7.31747,1.1004 -14.53247,2.5308 -21.62305,4.27734 -6.36228,-13.54003 -14.94901,-25.82719 -25.29883,-36.38672 -23.71405,-24.19459 -56.67753,-39.32202 -93.31055,-39.68945 -7.41039,-0.0743 -14.68223,0.45772 -21.76953,1.55078 -1.62033,-6.93937 -2.88618,-14.01611 -3.77734,-21.20898 8.3871,-1.33097 16.99447,-1.98053 25.76367,-1.89258 z m -62.19726,12.44141 c 1.10033,7.31774 2.53084,14.53029 4.27734,21.62109 -44.56395,20.93847 -75.54836,65.99002 -76.07617,118.61133 -0.0743,7.41001 0.45755,14.68251 1.55078,21.76953 -6.93881,1.62024 -14.01282,2.88616 -21.20508,3.77734 -1.33094,-8.38698 -1.98248,-16.99448 -1.89453,-25.76367 0.63037,-62.8465 39.01363,-116.64367 93.34766,-140.01562 z m 61.90039,17.10937 c 5.84325,0.0586 11.58671,0.51433 17.20312,1.3418 -4.37095,15.85133 -10.60708,30.91156 -18.45312,44.93555 -7.85379,-14.03542 -14.08952,-29.09956 -18.45899,-44.94141 6.42135,-0.94559 13.00435,-1.40318 19.70899,-1.33594 z m 25.09375,2.76563 c 7.1108,1.51962 13.98907,3.64 20.58203,6.30859 -11.88996,42.96045 -35.78938,80.91751 -67.81641,110.06445 -5.50026,-4.71948 -11.21708,-9.19574 -17.13086,-13.41211 30.57601,-26.87152 53.32758,-62.46075 64.36524,-102.96093 z m -80.64453,9.57617 c 6.83351,24.17897 17.35976,46.83963 30.93554,67.32031 -6.598,7.66044 -13.75778,14.81994 -21.41601,21.41602 -20.46423,-13.56768 -43.11954,-24.0979 -67.32227,-30.9336 12.18442,-25.22843 32.61458,-45.63456 57.80274,-57.80273 z m 108.60937,0.006 c 12.61381,6.09224 24.02109,14.24495 33.79688,24.02344 9.77572,9.77855 17.91789,21.18176 24.00195,33.77539 -24.1797,6.83421 -46.83769,17.36332 -67.31836,30.93945 -7.65999,-6.59756 -14.81835,-13.75847 -21.41406,-21.41602 13.56783,-20.46454 24.09752,-43.11934 30.93359,-67.32226 z m -229.48242,56.78515 c 7.57355,0.076 15.05885,0.51363 22.4414,1.29688 -2.42482,6.82771 -4.40248,13.8653 -5.90039,21.07812 -5.52558,-0.48846 -11.11349,-0.76566 -16.75586,-0.82226 -53.31018,-0.53473 -93.596845,18.70992 -116.861323,33.76562 13.250757,8.57496 30.937473,17.87198 52.650393,24.52539 0.80317,7.9034 1.99386,15.69768 3.54687,23.36133 C 87.343026,383.52671 56.581961,362.65641 37.745216,346.65378 63.066307,325.14802 115.54104,290.57998 190.65928,291.33346 Z m 355.02148,0 c 5.40249,0.0542 10.75876,0.29427 16.06641,0.71094 1.9972,7.21019 3.60607,14.58287 4.80664,22.0918 -6.93266,-0.75564 -13.96767,-1.17856 -21.08984,-1.25 -39.91203,-0.40034 -77.32654,10.25628 -109.33789,29.11914 -6.62534,-4.10998 -12.99373,-8.59089 -19.07813,-13.41211 37.0354,-23.98655 81.26897,-37.73485 128.63281,-37.25977 z m 56.21485,7.4336 c 41.77277,10.83963 72.49941,31.29367 92.02734,47.88281 -25.8348,21.94144 -87.40631,63.42682 -175.35352,54.02344 2.42434,-6.82614 4.40253,-13.86121 5.9004,-21.07227 19.40363,1.73362 76.57028,3.95915 133.59765,-32.9375 -16.2919,-10.62668 -34.21733,-18.41204 -52.6289,-24.5332 -0.80302,-7.90454 -1.98991,-15.69855 -3.54297,-23.36328 z m -351.4375,0.95898 c 42.96105,11.8897 80.91921,35.79303 110.0664,67.82031 -4.71966,5.5006 -9.19759,11.2167 -13.41406,17.13086 -2.53895,-2.88904 -5.15435,-5.70917 -7.8457,-8.45507 -25.79419,-26.31686 -58.44328,-45.91756 -95.11719,-55.91211 1.51961,-7.11112 3.64191,-13.99076 6.31055,-20.58399 z m 134.10156,8.90235 c 26.87148,30.5748 62.46167,53.32578 102.96094,64.36328 -1.51958,7.11131 -3.64187,13.9906 -6.31055,20.58398 -42.95988,-11.88907 -80.91614,-35.79015 -110.0625,-67.8164 4.71971,-5.50052 9.19556,-11.21676 13.41211,-17.13086 z M 190.36436,320.8862 c 5.18357,0.052 10.31775,0.29662 15.39843,0.72656 -1.1925,7.64153 -1.84794,15.45919 -1.92773,23.41406 -0.091,9.07349 0.57043,17.98436 1.92773,26.67188 -6.41242,0.54087 -12.90843,0.78463 -19.47656,0.71875 -7.54502,-0.0757 -14.9897,-0.55832 -22.31055,-1.42774 -1.02422,-8.63758 -1.50759,-17.44193 -1.41796,-26.37695 0.0757,-7.54476 0.55843,-14.9862 1.42773,-22.30664 8.63834,-1.02437 17.4432,-1.50955 26.37891,-1.41992 z m 355.01953,0 c 7.54489,0.0757 14.98807,0.55664 22.30859,1.42578 1.02423,8.63767 1.50759,17.44186 1.41797,26.37695 -0.0755,7.53049 -0.55746,14.96029 -1.42383,22.26758 -16.08024,1.90614 -30.37864,1.68999 -41.77929,0.73438 1.19266,-7.64202 1.84989,-15.46066 1.92968,-23.41602 0.091,-9.07293 -0.57065,-17.98283 -1.92773,-26.66992 6.41178,-0.54075 12.90713,-0.78463 19.47461,-0.71875 z m -27.43946,1.54687 c 1.33051,8.3863 1.98053,16.99338 1.89258,25.76172 -0.63036,62.84533 -39.01601,116.64051 -93.34961,140.01367 -1.10031,-7.31713 -2.53095,-14.52889 -4.27734,-21.61914 44.5631,-20.93925 75.54837,-65.99086 76.07617,-118.61132 0.0743,-7.40913 -0.45776,-14.67939 -1.55078,-21.76563 6.94015,-1.62054 14.01526,-2.8881 21.20898,-3.7793 z m -362.13671,1.01172 c -0.75552,6.93241 -1.17857,13.96618 -1.25,21.08789 -0.96217,95.92567 61.94182,177.42549 149.1582,204.14649 0.80966,8.08376 2.00624,15.87011 3.51758,23.35351 C 206.19385,545.78449 131.91527,453.34525 133.00889,344.31393 c 0.0542,-5.40075 0.29075,-10.75662 0.70703,-16.0625 7.20997,-1.99718 14.58314,-3.60602 22.0918,-4.80664 z m 333.13867,4.74805 c 0.9457,6.42065 1.40513,13.00327 1.33789,19.70703 -0.0586,5.84327 -0.51433,11.58674 -1.3418,17.20313 -15.85066,-4.37041 -30.90985,-10.60535 -44.93359,-18.45118 14.0347,-7.85334 29.09658,-14.08952 44.9375,-18.45898 z m -246.22266,0.01 c 15.8511,4.37072 30.91341,10.60534 44.9375,18.45118 -14.03491,7.85351 -29.10009,14.08757 -44.9414,18.45703 -0.94591,-6.42111 -1.40319,-13.00259 -1.33594,-19.70703 0.0586,-5.84298 0.51246,-11.58504 1.33984,-17.20118 z m -117.20312,2.50782 c -0.29405,4.47558 -0.46619,8.98411 -0.51172,13.52343 -0.0619,6.1709 0.11027,12.29134 0.50781,18.35157 -12.7847,-4.13048 -25.00764,-9.48785 -36.529296,-15.9336 11.529226,-6.45124 23.754506,-11.81123 36.533206,-15.9414 z m 480.63281,0.01 c 12.78383,4.13048 25.00432,9.48602 36.52539,15.93164 -12.37424,6.92427 -24.65261,12.10729 -36.52539,15.9336 0.29381,-4.47399 0.46424,-8.98181 0.50976,-13.51953 0.0619,-6.16935 -0.11242,-12.287 -0.50976,-18.34571 z m -240.31641,1.02344 c 4.74982,5.18189 9.72443,10.15865 14.90625,14.91016 -5.18209,4.75007 -10.15657,9.72219 -14.9082,14.90429 -1.83087,-1.99746 -3.69714,-3.96339 -5.59375,-5.89843 -3.02354,-3.08477 -6.12803,-6.08981 -9.3125,-9.00977 5.18209,-4.75001 10.15653,-9.72422 14.9082,-14.90625 z m -70.29492,19.55469 c 6.62456,4.10936 12.99437,8.58973 19.07813,13.41015 -37.03546,23.98691 -81.26726,37.73484 -128.63086,37.25977 -5.40153,-0.0542 -10.75978,-0.29095 -16.06641,-0.70703 -1.99757,-7.21102 -3.6059,-14.58392 -4.80664,-22.09375 6.93294,0.75584 13.9677,1.17856 21.08984,1.25 39.91172,0.40033 77.32497,-10.25631 109.33594,-29.11914 z m 91.18555,0.66406 c 5.50061,4.71983 11.21664,9.19742 17.13086,13.41406 -30.57675,26.87136 -53.32937,62.46045 -64.36719,102.96094 -7.11058,-1.51952 -13.98923,-3.64218 -20.58203,-6.31055 11.88924,-42.96112 35.79128,-80.91738 67.81836,-110.06445 z m -65.67969,18.05469 c 7.66048,6.59786 14.81998,13.75803 21.41602,21.41601 -13.5675,20.46463 -24.09593,43.12102 -30.93164,67.32422 -25.22954,-12.18389 -45.63778,-32.61249 -57.80665,-57.80078 24.18035,-6.83421 46.84091,-17.363 67.32227,-30.93945 z m 89.56836,0.008 c 20.46427,13.5676 43.12164,24.09596 67.32422,30.93164 -12.18404,25.22779 -32.61341,45.63239 -57.80078,57.80078 -6.83379,-24.17908 -17.36145,-46.83777 -30.9375,-67.31836 6.59757,-7.65995 13.75644,-14.81846 21.41406,-21.41406 z m -26.72266,27.83984 c 23.98723,37.03589 37.73485,81.26858 37.25977,128.63282 -0.0542,5.40072 -0.29279,10.75834 -0.70899,16.06445 -7.21086,1.9976 -14.58407,3.60975 -22.09375,4.81055 0.75584,-6.93255 1.17858,-13.96991 1.25,-21.0918 0.40035,-39.91249 -10.25536,-77.3266 -29.11914,-109.33789 4.10992,-6.62543 8.59091,-12.99368 13.41211,-19.07813 z m -137.99609,5.16211 c 20.93848,44.56345 65.98654,75.54642 118.60742,76.07422 7.41054,0.0743 14.6842,-0.45744 21.77149,-1.55078 1.62076,6.93982 2.88591,14.01755 3.77734,21.21094 -8.38743,1.33095 -16.99611,1.97858 -25.76563,1.89062 -62.84552,-0.63036 -116.63789,-39.01406 -140.00976,-93.34765 7.31712,-1.1004 14.52886,-2.53082 21.61914,-4.27735 z m 345.3125,2.25977 c -26.26008,101.02295 -118.69185,175.28489 -227.71094,174.1914 -5.40164,-0.0542 -10.75758,-0.29229 -16.06445,-0.70898 -1.99722,-7.21014 -3.60997,-14.58093 -4.81055,-22.08984 6.9329,0.7557 13.96966,1.1766 21.0918,1.24804 95.86242,0.96152 177.31817,-61.85951 204.09375,-148.98632 7.99383,-0.83665 15.80322,-2.0743 23.40039,-3.6543 z m -375.13281,3.10742 c 16.44841,39.69447 48.25561,71.55533 88.01758,88.02539 -0.95819,8.31964 -1.49036,16.77003 -1.57618,25.32617 -0.0629,6.26841 0.11089,12.38281 0.49414,18.34571 -61.93823,-20.01615 -110.6574,-68.8407 -130.63086,-130.63477 4.47671,0.29406 8.98717,0.46618 13.52735,0.51172 10.20799,0.10239 20.27788,-0.43409 30.16797,-1.57422 z m 299.50976,0.0312 c 14.98298,1.87688 29.56736,2.1938 43.6211,1.25195 -20.05765,61.83999 -68.84138,110.47202 -130.56641,130.42383 0.29394,-4.47578 0.46424,-8.98393 0.50977,-13.52344 0.10239,-10.20762 -0.43436,-20.2744 -1.57422,-30.16406 39.68285,-16.44419 71.53586,-48.24153 88.00976,-87.98828 z m -149.75195,16.40039 c 7.85366,14.03494 14.08891,29.09825 18.45898,44.93945 -6.42118,0.94573 -13.00462,1.40515 -19.70898,1.3379 -5.84293,-0.0586 -11.58505,-0.51444 -17.20117,-1.3418 4.37065,-15.85097 10.60529,-30.91154 18.45117,-44.93555 z m -54.01953,74.56055 c 6.82637,2.42441 13.86286,4.40452 21.07422,5.90234 -0.48813,5.52488 -0.76569,11.1106 -0.82227,16.75195 -0.53476,53.3146 18.69847,93.55272 33.71485,116.7793 0.0182,0.0281 0.0365,0.0558 0.0547,0.084 8.53888,-13.19477 17.85721,-30.87811 24.52735,-52.65235 7.9028,-0.80316 15.69432,-1.99011 23.35742,-3.54297 -10.99549,42.37611 -31.82965,73.13284 -47.88477,92.03125 -34.99643,-41.20669 -55.90233,-94.69595 -55.31836,-152.91601 0.076,-7.57214 0.51398,-15.05628 1.29688,-22.4375 z m 79.0664,7.33789 c 0.54093,6.41198 0.78658,12.90886 0.72071,19.47656 -0.0757,7.5446 -0.56007,14.98813 -1.42969,22.30859 -8.63785,1.02431 -17.44163,1.5076 -26.37695,1.41797 -7.54525,-0.0757 -14.98963,-0.55836 -22.31055,-1.42773 -1.02424,-8.63782 -1.5076,-17.4416 -1.41797,-26.37695 0.052,-5.1832 0.29513,-10.3161 0.72461,-15.39649 7.64247,1.19283 15.46204,1.84795 23.41797,1.92774 9.07379,0.091 17.98394,-0.57221 26.67187,-1.92969 z m -40.99023,80.24219 c 4.47652,0.29434 8.98724,0.46619 13.52734,0.51171 6.17071,0.0619 12.28956,-0.11029 18.34961,-0.50781 -4.1307,12.78553 -9.48709,25.00689 -15.93359,36.5293 -6.452,-11.52992 -11.81291,-23.75378 -15.94336,-36.5332 z"
       sodipodi:nodetypes="ccccccccccsccscccsccscsccccccsccscccccscssccssccscscscscscsccscccsccscccscscscccssccssccsccsccscscccscccccccccccsccccsccsccccssccsccsccccccccccccccccccscscscscsscsccscscsccscccsccscccsccccccsccsccccccsccccsccccsccscccccccccccccccccsccscccsccscccsccsccccsccsccccsccccsccccssccccsccscscscsccsccc" />
  </g>
</svg>
